<svg width="500" height="500" viewBox="0 0 500 500" fill="none" xmlns="http://www.w3.org/2000/svg">
<path d="M168.372 399C165.908 399 163.443 398.059 161.566 396.187L20 255.001L161.566 113.815C165.33 110.062 171.414 110.062 175.177 113.815C178.941 117.569 178.941 123.636 175.177 127.389L47.2217 255.001L175.177 382.613C178.941 386.367 178.941 392.434 175.177 396.187C173.3 398.059 170.836 399 168.372 399Z" fill="#C24332"/>
<path d="M331.628 399C329.164 399 326.7 398.059 324.823 396.187C321.059 392.434 321.059 386.367 324.823 382.613L452.778 255.001L324.823 127.389C321.059 123.636 321.059 117.569 324.823 113.815C328.586 110.062 334.67 110.062 338.434 113.815L480 255.001L338.434 396.187C336.557 398.059 334.092 399 331.628 399Z" fill="#C24332"/>
<path d="M206.65 457C205.965 457 205.262 456.923 204.568 456.779C199.374 455.642 196.088 450.511 197.225 445.312L283.955 50.5613C285.092 45.3718 290.257 42.0886 295.432 43.2247C300.626 44.3608 303.912 49.4926 302.775 54.6917L216.045 449.442C215.062 453.938 211.073 457 206.65 457Z" fill="#C24332"/>
</svg>
