<svg width="509" height="509" viewBox="0 0 509 509" fill="none" xmlns="http://www.w3.org/2000/svg">
<path fill-rule="evenodd" clip-rule="evenodd" d="M161.135 8C148.547 8 137.199 15.5587 132.382 27.1515C127.565 38.7443 130.228 52.0881 139.129 60.9609L161.135 82.898V199.465C161.135 207.693 157.856 215.584 152.02 221.402L27.5331 345.498C-31.2835 404.129 10.3728 504.38 93.5521 504.38H415.448C498.627 504.38 540.284 404.129 481.467 345.498L356.98 221.403C351.144 215.584 347.865 207.693 347.865 199.465V82.898L369.871 60.9609C378.772 52.0881 381.435 38.7443 376.618 27.1515C371.801 15.5587 360.452 8 347.865 8H161.135ZM223.378 199.465V70.0475H285.622V199.465C285.622 224.149 295.458 247.822 312.968 265.277L344.947 297.155C322.638 291.982 299.247 293.029 277.376 300.297L262.743 305.159C237.19 313.65 209.564 313.65 184.011 305.159L166.506 299.342C165.321 298.948 164.129 298.592 162.933 298.272L196.032 265.277C213.542 247.822 223.378 224.149 223.378 199.465Z" fill="#C24332"/>
</svg>
