<svg width="448" height="479" viewBox="0 0 448 479" fill="none" xmlns="http://www.w3.org/2000/svg">
<path fill-rule="evenodd" clip-rule="evenodd" d="M0 70.5546V258.44C2.66675 286.773 18.7 354.14 61.5 396.94C115 450.44 203 478.44 224 478.44C245 478.44 333 450.911 386.5 397.356C429.3 354.511 445.333 287.074 448 258.711V70.6193C448 65.6688 444.422 61.4752 439.534 60.6918C383.14 51.6532 276.392 29.2614 229.728 1.57459C226.191 -0.523803 221.808 -0.525024 218.271 1.5719C171.605 29.2291 64.8613 51.5975 8.46777 60.6268C3.57886 61.4095 0 65.6034 0 70.5546ZM223.5 379.94C302.201 379.94 366 316.141 366 237.44C366 158.739 302.201 94.9401 223.5 94.9401C144.799 94.9401 81 158.739 81 237.44C81 316.141 144.799 379.94 223.5 379.94Z" fill="#C24332"/>
<path d="M192 168.94C192 163.417 196.477 158.94 202 158.94H246C251.523 158.94 256 163.417 256 168.94V308.94C256 314.463 251.523 318.94 246 318.94H202C196.477 318.94 192 314.463 192 308.94V168.94Z" fill="#C24332"/>
<path d="M294 206.94C299.523 206.94 304 211.417 304 216.94V260.94C304 266.463 299.523 270.94 294 270.94H154C148.477 270.94 144 266.463 144 260.94V216.94C144 211.417 148.477 206.94 154 206.94H294Z" fill="#C24332"/>
</svg>
