<svg width="489" height="491" viewBox="0 0 489 491" fill="none" xmlns="http://www.w3.org/2000/svg">
<path d="M132.635 491C184.984 491 211.159 463.08 242.093 431.791C238.285 423.287 230.671 400.213 230.671 375.952C230.671 331.281 251.928 297.007 262.556 285.454L142.153 163.667C141.773 163.282 78.5415 227.689 46.9734 259.941C-4.04312 311.544 0.335189 355.253 0.335168 361.992C0.335168 453.453 80.2864 491 132.635 491Z" fill="#C24332"/>
<path d="M487.764 133.626C487.764 186.462 460.102 212.88 429.101 244.101C420.676 240.258 397.815 232.573 373.777 232.573C329.518 232.573 295.56 254.028 284.113 264.755L163.449 143.232C163.068 142.848 226.881 79.0285 258.836 47.1669C309.963 -4.32418 353.269 0.0948523 359.946 0.0948307C450.563 0.0948318 487.764 80.7897 487.764 133.626Z" fill="#C24332"/>
<path d="M359.945 489.074V261.867C326.719 265.878 260.266 294.022 260.266 374.508C260.266 454.993 326.719 484.421 359.945 489.074Z" fill="#C24332"/>
<path d="M388.562 261.867V489.074C421.788 485.063 488.241 456.919 488.241 376.433C488.241 295.948 421.788 266.52 388.562 261.867Z" fill="#C24332"/>
</svg>
