<?xml version="1.0" encoding="UTF-8"?>
<!DOCTYPE svg PUBLIC "-//W3C//DTD SVG 1.1//EN" "http://www.w3.org/Graphics/SVG/1.1/DTD/svg11.dtd">
<!-- Creator: CorelDRAW 2020 (64-Bit) -->
<svg
    xmlns="http://www.w3.org/2000/svg"
    xml:space="preserve"
    width="110mm"
    height="111.484mm"
    version="1.1"
    style="shape-rendering:geometricPrecision; text-rendering:geometricPrecision; image-rendering:optimizeQuality; fill-rule:evenodd; clip-rule:evenodd"
    viewBox="0 0 3352.61 3397.82"
    xmlns:xlink="http://www.w3.org/1999/xlink"
    xmlns:xodm="http://www.corel.com/coreldraw/odm/2003">
    <defs>
        <style type="text/css">
            <![CDATA[
            .fil0 {
                fill: #ffffff;
            }
            ]]>
        </style>
    </defs>
    <g id="Слой_x0020_1">
        <metadata id="CorelCorpID_0Corel-Layer"/>
        <path
            class="fil0"
            d="M1958.89 0.55c-13.18,3.76 -8.36,12.31 -22.9,16.59l0 0c-14.13,4.18 -32.18,-0.31 -46.45,-4.81l0 0c-12.95,-4.07 -22.79,-8.16 -23.73,-5.76l0 0c-1.48,3.75 -30.44,14.31 -33.94,16.42l0 0c-12.16,7.32 -3.37,19.31 -0.55,29.7l0 0c3.29,12.16 18.06,33.85 11.13,40.17l0 0c-20.28,18.52 -21.18,-19 -29.4,-23.86l0 0c-10.12,-5.96 -37.43,-10.06 -25.99,-10.73l0 0c-5.13,-9.16 -27.99,-9.7 -36.59,-14.96l0 0c-7.01,-4.28 -12.12,-14.22 -18.17,-17.08l0 0c-0.82,1.53 -26.68,32.49 -31.53,38.79l0 0c-3.48,4.53 -15.1,10.25 -16.56,15.42l0 0c-5.11,18.13 14.02,16.11 17.89,28.61l0 0c0.87,2.81 -5.24,2.54 -11.39,2.26l0 0c-4.97,-0.22 -9.98,-0.44 -11.37,0.96l0 0c-6.67,6.71 0.78,13.71 2.46,19.76l0 0c2.42,8.66 2.23,34.54 7.97,37.61l0 0c1.69,0.9 -11.51,7 -3.58,25.2l0 0c9.71,22.3 38.09,27.03 53.94,42.48l0 0c13.36,13.02 13.34,15.44 32.49,19.11l0 0c7.75,1.49 32.26,10.32 39.12,6.23l0 0c8.18,-4.9 9.94,-16.15 9.88,-24.92l0 0c-0.07,-8.73 -9.22,-16.59 -7.89,-20.79l0 0c3.47,-11.12 12.08,-7.49 21.96,-3.86l0 0c7.45,2.74 15.63,5.49 22.89,1.92l0 0c10.84,-5.31 28.8,-15.47 38.82,-22.98l0 0c1.28,-0.97 24.71,-12.74 27.52,-14.69l0 0c2.39,1.63 31.11,29.94 35.38,5.28l0 0c-12.42,4.15 19.29,-14.39 22.72,-16.77l0 0c20.74,-14.29 16.07,-17.51 -3.02,-18.22l0 0c-29.03,-1.09 -36.69,-1.33 -56.14,-21.51l0 0c-9.71,-10.06 -22.05,-46.05 -33.71,-49.28l0 0c3.25,-1.13 18.07,-28.22 24.21,-24.33l0 0c4.57,2.9 11.08,1.75 16.46,0.59l0 0c6.06,-1.29 10.69,-2.59 9.57,1.87l0 0c-3.3,13.01 -11.41,16.29 -5.6,31.67l0 0c4.59,12.13 16.46,17.68 23.46,23.04l0 0c7.18,5.49 4.91,8.33 14.65,11.69l0 0c14.18,4.9 18.66,-3.68 30.83,-5.85l0 0c3.88,-0.69 6.92,-0.2 9.64,0.29l0 0c5.29,0.95 9.47,1.9 16.6,-5.73l0 0c10.41,-11.14 2.29,-34.73 14.9,-42.47l0 0c-8.91,-8.68 -20.81,-2.84 -16.39,-22.01l0 0c1.58,-6.85 20.17,-16.41 20.3,-20.59l0 0c0.4,-12.1 -56.94,-20.84 -67.37,-22.78l0 0c-4.62,-0.87 -11.86,-2.24 -17.48,-2.24l0 0c-1.93,0 -3.65,0.16 -5.03,0.55zm272.79 4.15c-8.55,2.59 -17.32,4.88 -24.96,9.59l0 0c-4.46,2.74 -4.68,9.67 -10.44,11.16l0 0c-21.12,5.5 -7.57,-13.15 -18.5,-19.74l0 0c-9.65,-5.8 -48.09,7.87 -54.43,15.1l0 0c2.73,1.19 -21.35,15.35 -29.08,7.92l0 0c-5.26,-5.05 0.54,-14.62 -15.54,-16.57l0 0c-0.01,-0.06 -0.24,-0.13 -1.1,-0.2l0 0c-2.23,0.23 -1.54,0.33 -0.53,0.34l0 0c-2.48,3.08 9.11,28.73 0.18,33.77l0 0c5.18,8.23 2.21,24.22 9.3,29.47l0 0c6.6,4.89 31.32,4.91 40.78,7.51l0 0c25.33,6.97 62.42,14.69 88.75,9.74l0 0c26.58,-4.99 42.36,-15.63 58.14,-33.68l0 0c11.53,-13.2 17.09,-15.56 17.85,-31.45l0 0c0.45,-9.52 -16.52,-20.88 -15.93,-22.56l0 0c-5.45,2.98 -13.19,1.54 -21.47,0.1l0 0c-4.73,-0.82 -9.63,-1.65 -14.39,-1.65l0 0c-2.96,0 -5.86,0.32 -8.62,1.16zm-354.67 321.46c0.96,10.73 11.37,30.56 24.14,30.66l0 0c27.2,0.22 34.48,-56.02 6.67,-61.06l0 0c-12.54,4.71 -32.74,8.81 -30.81,30.4zm99.4 7.53c-14.73,4.22 -40.19,20.05 -45.27,32.83l0 0c-9.31,23.41 4.99,45.35 -18.45,63.74l0 0c-4.83,3.79 -22.29,5.27 -22.86,14.21l0 0c-0.89,14.52 20.45,19.32 26.21,16.63l0 0c10.5,-4.93 13.21,-20.12 25.4,-24.18l0 0c12.74,-4.24 20.51,-10.37 32.77,-8.69l0 0c25.38,3.49 45.77,-0.89 70.16,-6.01l0 0c10.36,-2.18 27.29,2.5 34.11,-8.91l0 0c4.73,-7.93 -3.83,-6.24 -4.81,-14.78l0 0c-2.46,-21.68 -10.51,-28.32 -31.05,-39.66l0 0c-7.82,-4.32 -16.85,-9.37 -24.75,-13.23l0 0c-13.01,-6.36 -27.51,-6.13 -40.01,-12.43l0 0c-0.62,0.16 -1.09,0.32 -1.47,0.48zm809.63 135.82l-19.97 17.94 -39.32 47.19 -131.03 1.15 -57.01 1.66 -53.14 -17.47 -27.72 6.2 -49.91 -73.18 -175.18 29.71 -69.69 3.43 -108.51 23.67 -53.17 -2.53 -20.99 22.67 -55.82 60.64 15.14 82.62 30.03 28.81 7.92 39.27 -14.09 8.04 -43.82 -20.06 -48.6 62.65 -115.57 -1.92 -53.53 39.49 -125.91 68.56 -51.36 28.26 -80.38 -44.58 -13.88 -30.5 -38.63 -50.99 -19.4 -35.81 11.04 -8.71 26.85 -45.77 -1.36 -43.27 -34.76 -38.18 -1.7 -15.67 -31.41 -27.77 -16.22 -30.28 -57.64 -1.51 -32.73 0.95 -52.8 -22.52 -38.24 -12.51 -23.77 6.48 -13.91 11.45 -15.01 48.82 13.41 48.54 -23.31 23.33 -15.82 -9.41 -82.45 15.65 -62.7 -1.28 -15.66 -17.01 -47.01 -22.4 -1.57 -40.97 -35.22 -19.73 -77.67 -17.98 -59.31 5.31 -45.54 6.82 -130 -74.72 -60.65 81.6 24.67 76.34 13.48 69.01 -0.75 30.86 28.03 65.03 -7.77 78.13 5.92 72.47 -57.2 17.82 -68.67 42.24 -48.19 87.07 -93.07 27.92 -93.51 11.05 5.22 83.99 -15.54 152.34 -39.62 120.43 -58.57 144.41 14.52 54.68 17.82 83.76 -67.32 89.49 -6.81 69.33 100.17 55.5 57.24 61.47 30.92 63.56 8.05 65.55 9.27 42.66 -33.77 94.54 51.7 101.22 -23.56 52.41 -44.74 82.83 -17.49 68.5 -2.22 92.94 37.59 17.62 83.2 -24.84 105.44 62.14 63.4 -38.73 49.26 -69.37 84.53 -47.94 84.67 -9.07 58.72 52.06 88.28 129.64 9.95 11.32 0 -1052.85c0,-99.78 80.9,-180.66 180.69,-180.66l0 0c99.79,0 180.69,80.89 180.69,180.66l0 0 0 1192.28c0,69.85 -39.67,130.39 -97.7,160.45l0 0 91.56 104.13 32.48 29.65 60 8.08 88.71 79.57 30.01 38.31 150.71 34.09 111.95 -10.26 124.23 -0.41 179.26 -60.6 -8.78 -36.94 9.39 -87.9 45.08 -9.28 -14.96 -66.74 6.78 -113.62 -4.24 -25.81 3.29 -80.29 196.29 -58.07 0.89 -1.42c-135.68,-150.56 -209.95,-343.77 -209.95,-548.39l0 0 0 -369.79 -325.24 0c-99.79,0 -180.68,-80.89 -180.68,-180.66l0 0c0,-99.76 80.89,-180.64 180.68,-180.64l0 0 325.24 0 0 -325.17c0,-99.77 80.91,-180.65 180.69,-180.65l0 0c99.8,0 180.7,80.88 180.7,180.65l0 0 0 325.17 717.17 0 17 -11.08 12.02 -30.55 26.16 -35.51 23.41 -15.37 -2.37 -43.01 2.84 -114.04 -15.82 -25.91 21.47 -51.08 2.95 -76.18 60.62 -24.44 86.59 -18.76 41.75 -49.69 -2.63 -103.94 -29.38 -49.22 -68.43 -4.73 -21.52 -85.61 15.12 -75.42 31.81 -37.38 50.52 -39.87 19.91 -32.42 27.45 -11.21 17.57 -42.06 -23.69 -56.5 -55.36 -45.38 -49.12 -5.32 -44.95 22.82 -74.99 12.82 -25.02 -66.93 -23.32 -32 -97.24 -25.76 -172.88 76.25zm-1932.52 900.03c-33.61,-33.59 -52.91,-80.15 -52.91,-127.71l0 0c0,-47.54 19.29,-94.11 52.91,-127.76l0 0c33.64,-33.61 80.22,-52.89 127.78,-52.89l0 0c47.56,0 94.14,19.29 127.75,52.89l0 0c33.64,33.64 52.94,80.22 52.94,127.76l0 0c0,47.56 -19.3,94.12 -52.94,127.71l0 0c-33.61,33.64 -80.19,52.93 -127.75,52.93l0 0c-47.56,0 -94.14,-19.29 -127.78,-52.93zm1464.87 558.76l0 369.79c0,190.22 115.78,353.6 279.82,421.93l0 0 23.44 -11.89 5.55 -17.08 -10.71 -66.72 -33.72 -47.27 -33.14 -48.09 -13.81 -83.08 34.7 -54.32 45.34 -66.64 16.42 -55.51 99.94 -86.65 60.21 -70.3 46.91 11.93 26.99 -28.85 45.47 -144.7 -9.01 -22.55 -584.42 0z"/>
    </g>
</svg>
