<svg width="460" height="469" viewBox="0 0 460 469" fill="none" xmlns="http://www.w3.org/2000/svg">
<path fill-rule="evenodd" clip-rule="evenodd" d="M418.359 166.331H294.986C284.605 166.331 276.189 174.731 276.189 185.091V223.593C276.191 223.593 276.188 223.593 276.189 223.593L276.185 252.221C276.184 252.221 276.187 252.221 276.185 252.221L276.189 276.767C276.191 276.767 276.188 276.767 276.189 276.767L276.185 305.395C276.184 305.395 276.187 305.395 276.185 305.395L276.189 332.663L276.185 361.291L276.189 385.837L276.185 414.465L276.189 450.24C276.189 460.601 284.583 469 294.965 469H420.992C441.08 469 453.475 450.573 458.178 439.124C458.944 437.258 459.241 435.303 459.241 433.287V201.779C459.241 183.366 436.811 171.509 423.506 167.108C421.848 166.559 420.105 166.331 418.359 166.331ZM276.185 414.465L276.189 385.837C282.979 385.835 288.482 380.341 288.482 373.564C288.482 366.787 282.975 361.293 276.185 361.291L276.189 332.663C298.821 332.665 317.167 350.976 317.167 373.564C317.167 396.152 298.817 414.463 276.185 414.465ZM276.185 305.395C298.817 305.393 317.167 287.082 317.167 264.494C317.167 241.906 298.821 223.595 276.189 223.593L276.185 252.221C282.975 252.224 288.482 257.717 288.482 264.494C288.482 271.271 282.979 276.765 276.189 276.767L276.185 305.395ZM426.452 264.494C426.452 287.083 408.104 305.395 385.47 305.395C362.837 305.395 344.488 287.083 344.488 264.494C344.488 241.905 362.837 223.593 385.47 223.593C408.104 223.593 426.452 241.905 426.452 264.494ZM373.173 264.494C373.173 271.272 378.679 276.767 385.47 276.767C392.262 276.767 397.767 271.272 397.767 264.494C397.767 257.716 392.262 252.221 385.47 252.221C378.679 252.221 373.173 257.716 373.173 264.494ZM385.47 414.465C408.104 414.465 426.452 396.153 426.452 373.564C426.452 350.975 408.104 332.663 385.47 332.663C362.837 332.663 344.488 350.975 344.488 373.564C344.488 396.153 362.837 414.465 385.47 414.465ZM385.47 385.837C378.679 385.837 373.173 380.342 373.173 373.564C373.173 366.786 378.679 361.291 385.47 361.291C392.262 361.291 397.767 366.786 397.767 373.564C397.767 380.342 392.262 385.837 385.47 385.837Z" fill="#C24332"/>
<path d="M0.241211 450.24V395.378H246.132V450.24C246.132 460.601 237.716 469 227.335 469H19.0382C8.6569 469 0.241211 460.601 0.241211 450.24Z" fill="#C24332"/>
<path d="M246.132 201.779H0.241211V152.698C0.241211 139.064 19.366 119.977 33.0266 119.977H54.8836V92.7093H191.489V119.977H213.346C228.646 119.977 246.132 139.064 246.132 152.698V201.779Z" fill="#C24332"/>
<path d="M186.353 0H60.0201C49.6388 0 41.2231 8.39913 41.2231 18.76V46.6819C41.2231 57.0427 49.6388 65.4418 60.0201 65.4418H186.353C196.734 65.4418 205.15 57.0427 205.15 46.6819V18.76C205.15 8.39913 196.734 0 186.353 0Z" fill="#C24332"/>
<path fill-rule="evenodd" clip-rule="evenodd" d="M0.241211 229.047V368.11H246.132V229.047H0.241211ZM120.453 250.86C114.417 250.86 109.525 255.744 109.525 261.767V283.581H84.9355C78.8999 283.581 74.007 288.465 74.007 294.488V299.942C74.007 305.966 78.8999 310.849 84.9355 310.849H109.525V338.116C109.525 344.14 114.417 349.023 120.453 349.023H125.917C131.953 349.023 136.846 344.14 136.846 338.116V310.849H161.435C167.47 310.849 172.363 305.966 172.363 299.942V294.488C172.363 288.465 167.47 283.581 161.435 283.581H136.846V261.767C136.846 255.744 131.953 250.86 125.917 250.86H120.453Z" fill="#C24332"/>
</svg>
