<svg width="445" height="444" viewBox="0 0 445 444" fill="none" xmlns="http://www.w3.org/2000/svg">
<path d="M159.69 364.661H242.16V444.016H159.69V364.661ZM350.061 25.482C328.559 8.50464 288.521 0 229.909 0C163.637 0 119.098 8.21689 96.2927 24.6667C73.4875 41.0845 62.076 73.0568 62.076 120.584L61.7009 136.698H143.439L143.082 119.928C143.082 97.164 148.493 81.9291 159.279 74.3037C170.066 66.6783 191.675 62.8417 224.141 62.8417C258.715 62.8417 281.002 66.4865 290.932 73.6483C300.915 80.8581 305.879 96.9402 305.879 121.879C305.879 151.981 292.575 171.963 265.93 181.859L233.838 194.104C200.229 206.589 179.477 218.691 171.53 230.393C163.637 242.095 159.654 266.234 159.654 302.794H243.232V292.467C243.232 269.927 260.858 251.974 296.182 238.674C332.435 224.909 355.883 210.762 366.455 196.294C377.027 181.779 382.313 156.361 382.313 120.024C382.295 73.9361 371.545 42.4433 350.061 25.482Z" fill="#656463"/>
</svg>
