<svg width="458" height="513" viewBox="0 0 458 513" fill="none" xmlns="http://www.w3.org/2000/svg">
<path d="M283 175L421 0H257L177 88C177 160 247.667 176 283 175Z" fill="#C24332"/>
<path d="M81 140L45 181L111 249L139 278L269 409L300 427.5C309 435.5 352.833 443.667 372 444.5H458C458 407.5 423 396.5 422 396C421.2 395.6 393.667 389.833 380 387L347 369.5C337.8 363.1 326 348 318 334H262V304H308C306.8 302.4 300.833 280.667 298 270H251V240H289L279 205C197.4 205 148 154 148 101C140.8 101 115.667 113.667 104 120L81 140Z" fill="#C24332"/>
<path d="M0 236L26 204C94.1667 274 232 415.5 238 421.5C243.537 427.037 256.315 436.124 263.362 440.898C264.452 441.637 265.452 442.479 266.44 443.349C283.885 458.722 332.553 470.406 356.842 474.711C357.956 474.908 359.069 475 360.2 475H458V512C338 512 325 517.5 232 467C218.586 459.716 70.8333 310.667 0 236Z" fill="#C24332"/>
</svg>
