<svg width="509" height="509" viewBox="0 0 509 509" fill="none" xmlns="http://www.w3.org/2000/svg">
<path d="M349.769 152.7H48.5385C41.0614 152.7 35 158.777 35 166.273V271.467L197.462 217.173L363.308 271.467V166.273C363.308 158.777 357.246 152.7 349.769 152.7Z" fill="#C24332"/>
<path d="M197.462 247.713L35 302.007V420.773H363.308V302.007L197.462 247.713Z" fill="#C24332"/>
<path d="M35 495.427V447.92H363.308V495.427C363.308 502.923 357.246 509 349.769 509H48.5385C41.0614 509 35 502.923 35 495.427Z" fill="#C24332"/>
<path d="M475 179.847H417.462V149.307C417.462 141.81 423.523 135.733 431 135.733H461.462C468.939 135.733 475 141.81 475 149.307V179.847Z" fill="#C24332"/>
<path d="M475 335.94H417.462V210.387H475V335.94Z" fill="#C24332"/>
<path d="M461.462 509H431C423.523 509 417.462 502.923 417.462 495.427V366.48L475 366.48V495.427C475 502.923 468.939 509 461.462 509Z" fill="#C24332"/>
<path d="M62.0769 54.2933C62.0769 46.797 68.1383 40.72 75.6154 40.72H95.9231C103.4 40.72 109.462 46.797 109.462 54.2933V122.16H62.0769V54.2933Z" fill="#C24332"/>
<path d="M211 54.2933C211 46.797 217.061 40.72 224.538 40.72H244.846C252.323 40.72 258.385 46.797 258.385 54.2933V122.16H211V54.2933Z" fill="#C24332"/>
<path d="M136.538 13.5733C136.538 6.07699 142.6 0 150.077 0H170.385C177.862 0 183.923 6.07699 183.923 13.5733V122.16H136.538V13.5733Z" fill="#C24332"/>
<path d="M285.462 54.2933C285.462 46.797 291.523 40.72 299 40.72H319.308C326.785 40.72 332.846 46.797 332.846 54.2933V122.16H285.462V54.2933Z" fill="#C24332"/>
</svg>
