<svg width="509" height="512" viewBox="0 0 509 512" fill="none" xmlns="http://www.w3.org/2000/svg">
<path d="M31 186.916V146.156C31 145.058 31.8875 144.168 32.9823 144.168H203.46C204.555 144.168 205.442 145.049 205.442 146.147V186.916C205.442 187.314 89.1475 187.082 31 186.916Z" fill="#C24332"/>
<path d="M31 251.535V216.74H206.434V251.535C203.46 274.235 181.457 319.634 117.23 319.634C53.0035 319.634 32.9823 274.235 31 251.535Z" fill="#C24332"/>
<path d="M133.089 348.961H103.354V482.176H58.7522C54.7876 483.667 46.8584 488.737 46.8584 497.088C46.8584 505.439 54.7876 510.509 58.7522 512H178.681C182.316 511.337 189.584 507.626 189.584 498.082C189.584 488.538 182.316 483.501 178.681 482.176H133.089V348.961Z" fill="#C24332"/>
<path d="M416.558 75.5723H349.16V5C349.16 3.89543 350.055 3 351.16 3H414.558C415.663 3 416.558 3.89543 416.558 5V75.5723Z" fill="#C24332"/>
<path d="M343.212 148.145C324.876 165.045 290.681 191.887 286.717 259.488H479C475.036 191.887 440.841 165.045 422.505 148.145C420.853 146.653 417.351 142.975 416.558 140.191C415.765 137.408 416.227 115.835 416.558 105.396H349.16C349.49 115.835 349.952 137.408 349.159 140.191C348.366 142.975 344.864 146.653 343.212 148.145Z" fill="#C24332"/>
<path d="M479 289.313H286.717V411.592H479V289.313Z" fill="#C24332"/>
<path d="M479 440.422H286.717V510C286.717 511.105 287.612 512 288.717 512H477C478.105 512 479 511.105 479 510V440.422Z" fill="#C24332"/>
</svg>
