<svg width="413" height="544" viewBox="0 0 413 544" fill="none" xmlns="http://www.w3.org/2000/svg">
<path fill-rule="evenodd" clip-rule="evenodd" d="M155.801 334C198.14 256 176.522 103 102.005 103C36.7522 103 -15.0514 213 4.37501 288.5C6.21313 289.812 8.34139 291.237 10.7412 292.746C18.4879 297.618 29.0644 303.365 41.8462 308.997C41.8464 308.998 41.8465 308.999 41.8467 309L41.9232 309.031C59.437 316.743 81.0833 324.236 105.259 328.968C105.253 328.979 105.247 328.989 105.241 329L106.613 329.23C110.679 330.005 114.816 330.702 119.016 331.308L119.314 331.358C119.315 331.356 119.316 331.354 119.317 331.351C131.047 333.03 143.262 334 155.801 334ZM119.317 331.351C166.112 240.153 127.741 137.5 99.7413 137.5C66.2415 137.5 23.8473 209.499 41.8462 308.997C41.8719 309.009 41.8975 309.02 41.9232 309.031L55.2412 314.5C37.7413 230.5 72.3392 151 97.2902 151C122.238 151 153.233 244.477 105.259 328.968C105.71 329.056 106.161 329.144 106.613 329.23L119.016 331.308C119.116 331.323 119.217 331.337 119.317 331.351ZM145.838 422.5C137.869 422.5 60.8275 415.833 23.3031 412.5C16.3296 483 33.7635 544 92.5405 544C186.683 538 155.801 422.5 145.838 422.5Z" fill="#C24332"/>
<path fill-rule="evenodd" clip-rule="evenodd" d="M256.682 231C214.342 153 235.96 0 310.478 0C375.73 5.3104e-06 427.534 110 408.107 185.5C398.847 192.109 382.221 201.597 360.605 210.201L372.741 205C390.72 105.5 348.494 34 315.033 34C287.075 34 249.523 136.726 296.191 227.901C283.542 229.856 270.302 231 256.682 231ZM299.671 227.34L296.241 228C296.224 227.967 296.207 227.934 296.191 227.901C297.356 227.721 298.516 227.534 299.671 227.34ZM299.671 227.34L309.241 225.5C261.297 141 292.559 47.5 317.481 47.5C342.396 47.5 376.202 126.956 358.756 210.93C341.68 217.598 321.61 223.664 299.671 227.34ZM358.756 210.93C359.376 210.688 359.993 210.445 360.605 210.201L358.741 211C358.746 210.977 358.751 210.954 358.756 210.93ZM389.179 309.5C351.655 312.833 274.614 319.5 266.644 319.5C256.682 319.5 225.799 435 319.942 441C378.719 441 396.153 380 389.179 309.5Z" fill="#C24332"/>
</svg>
