<svg width="360" height="640" viewBox="0 0 360 640" fill="none" xmlns="http://www.w3.org/2000/svg">
<path d="M294.5 207.667L291.375 196.139L297.625 196.139L294.5 207.667Z" fill="#63948C"/>
<path d="M282 196.139L294.5 193.257L294.5 199.021L282 196.139Z" fill="#63948C"/>
<path d="M294.5 184.611L297.625 196.139L291.375 196.139L294.5 184.611Z" fill="#63948C"/>
<path d="M307 196.139L294.5 199.021L294.5 193.257L307 196.139Z" fill="#63948C"/>
<path d="M324.5 55.6667L321.375 44.1389L327.625 44.1389L324.5 55.6667Z" fill="#C24332"/>
<path d="M312 44.1389L324.5 41.257L324.5 47.0209L312 44.1389Z" fill="#C24332"/>
<path d="M324.5 32.6111L327.625 44.1389L321.375 44.1389L324.5 32.6111Z" fill="#C24332"/>
<path d="M337 44.1389L324.5 47.0209L324.5 41.257L337 44.1389Z" fill="#C24332"/>
<path d="M112.5 450.939L109.375 439.714L115.625 439.714L112.5 450.939Z" fill="#C24332"/>
<path d="M100 439.714L112.5 436.908L112.5 442.52L100 439.714Z" fill="#C24332"/>
<path d="M112.5 428.49L115.625 439.714L109.375 439.714L112.5 428.49Z" fill="#C24332"/>
<path d="M125 439.714L112.5 442.52L112.5 436.908L125 439.714Z" fill="#C24332"/>
<path d="M57.5 554.939L54.375 543.714L60.625 543.714L57.5 554.939Z" fill="#C24332"/>
<path d="M45 543.714L57.5 540.908L57.5 546.52L45 543.714Z" fill="#C24332"/>
<path d="M57.5 532.49L60.625 543.714L54.375 543.714L57.5 532.49Z" fill="#C24332"/>
<path d="M70 543.714L57.5 546.52L57.5 540.908L70 543.714Z" fill="#C24332"/>
<path d="M49.5 107.667L46.375 96.1389L52.625 96.1389L49.5 107.667Z" fill="#63948C"/>
<path d="M37 96.1389L49.5 93.257L49.5 99.0209L37 96.1389Z" fill="#63948C"/>
<path d="M49.5 84.6111L52.625 96.1389L46.375 96.1389L49.5 84.6111Z" fill="#63948C"/>
<path d="M62 96.1389L49.5 99.0209L49.5 93.257L62 96.1389Z" fill="#63948C"/>
<path d="M309.5 527.667L306.375 516.139L312.625 516.139L309.5 527.667Z" fill="#2E303F"/>
<path d="M297 516.139L309.5 513.257L309.5 519.021L297 516.139Z" fill="#2E303F"/>
<path d="M309.5 504.611L312.625 516.139L306.375 516.139L309.5 504.611Z" fill="#2E303F"/>
<path d="M322 516.139L309.5 519.021L309.5 513.257L322 516.139Z" fill="#2E303F"/>
</svg>
