<svg width="520" height="97" viewBox="0 0 520 97" fill="none" xmlns="http://www.w3.org/2000/svg">
<path d="M0.0240002 0.991996H53.304V78.464H82.968V96.608H41.496C38.808 96.608 36.216 95.792 33.72 94.16C30.936 92.24 29.544 90.032 29.544 87.536V19.28H23.784V74H0.0240002V0.991996ZM88.8878 19.28H83.1278V55.856H88.8878V19.28ZM112.648 64.928C112.648 70.976 108.712 74 100.84 74H71.1758C63.3038 74 59.3678 70.976 59.3678 64.928V10.208C59.3678 4.064 63.3038 0.991996 71.1758 0.991996H100.84C108.712 0.991996 112.648 4.064 112.648 10.208V64.928ZM175.88 64.928C175.88 70.976 171.944 74 164.072 74H134.408C126.536 74 122.6 70.976 122.6 64.928V23.744H116.696V5.6H122.6V0.991996H146.36V5.6H175.88V23.744H146.36V55.856H152.264V28.352H175.88V64.928ZM211.513 19.28H205.753V28.352H211.513V19.28ZM235.273 37.424C235.273 43.568 231.337 46.64 223.465 46.64H205.753V74H181.993V0.991996H223.465C231.337 0.991996 235.273 4.064 235.273 10.208V37.424ZM270.857 19.28H265.097V28.352H270.857V19.28ZM282.809 96.608C280.121 96.608 277.529 95.792 275.033 94.16C272.249 92.24 270.857 90.032 270.857 87.536V46.64H265.097V74H241.337V10.208C241.337 4.064 245.273 0.991996 253.145 0.991996H282.809C290.681 0.991996 294.617 4.064 294.617 10.208V78.464H324.281V96.608H282.809ZM330.2 46.496H312.488C304.616 46.496 300.68 43.472 300.68 37.424V0.991996H324.44V28.352H330.2V0.991996H353.96L330.2 46.496ZM330.2 0.991996H353.96V78.464H383.624V96.608H342.152C339.464 96.608 336.872 95.792 334.376 94.16C331.592 92.24 330.2 90.032 330.2 87.536V46.496V0.991996ZM383.784 28.352H400.344V46.64H383.784V55.856H400.344V74H360.024V0.991996H400.344V19.28H383.784V28.352ZM448.324 96.608C445.636 96.608 443.044 95.792 440.548 94.16C437.764 92.24 436.372 90.032 436.372 87.536V46.64H430.612V74H406.852V0.991996H430.612V28.352H436.372V0.991996H460.132V78.464H489.796V96.608H448.324ZM495.716 19.28H489.956V55.856H495.716V19.28ZM519.476 64.928C519.476 70.976 515.54 74 507.668 74H478.004C470.132 74 466.196 70.976 466.196 64.928V10.208C466.196 4.064 470.132 0.991996 478.004 0.991996H507.668C515.54 0.991996 519.476 4.064 519.476 10.208V64.928Z" fill="#AC2929"/>
</svg>
