<?xml version="1.0" encoding="UTF-8"?>
<!DOCTYPE svg PUBLIC "-//W3C//DTD SVG 1.1//EN" "http://www.w3.org/Graphics/SVG/1.1/DTD/svg11.dtd">
<!-- Creator: CorelDRAW 2020 (64-Bit) -->
<svg xmlns="http://www.w3.org/2000/svg" xml:space="preserve" width="500px" height="500px" version="1.1" style="shape-rendering:geometricPrecision; text-rendering:geometricPrecision; image-rendering:optimizeQuality; fill-rule:evenodd; clip-rule:evenodd"
viewBox="0 0 650 1600"
 xmlns:xlink="http://www.w3.org/1999/xlink"
 xmlns:xodm="http://www.corel.com/coreldraw/odm/2003">
 <defs>
  <style type="text/css">
   <![CDATA[
    .fil3 {fill:#FEFEFE;fill-rule:nonzero}
    .fil7 {fill:#F5A681;fill-rule:nonzero}
    .fil9 {fill:#F39976;fill-rule:nonzero}
    .fil8 {fill:#EF7D65;fill-rule:nonzero}
    .fil0 {fill:#E7E5E8;fill-rule:nonzero}
    .fil6 {fill:#E0DFDD;fill-rule:nonzero}
    .fil2 {fill:#D6972A;fill-rule:nonzero}
    .fil4 {fill:#B97A2F;fill-rule:nonzero}
    .fil1 {fill:#3E383B;fill-rule:nonzero}
    .fil5 {fill:#16915D;fill-rule:nonzero}
    .fil10 {fill:#433A52;fill-rule:nonzero}
    .fil15 {fill:#087FBB;fill-rule:nonzero}
    .fil13 {fill:#35A5E6;fill-rule:nonzero}
    .fil12 {fill:#F43D50;fill-rule:nonzero}
    .fil16 {fill:#FCCCA2;fill-rule:nonzero}
    .fil14 {fill:#FDDFC5;fill-rule:nonzero}
    .fil11 {fill:white;fill-opacity:0.501961}
   ]]>
  </style>
 </defs>
 <g id="Слой_x0020_1">
  <metadata id="CorelCorpID_0Corel-Layer"/>
  <path id="basic" class="fil0" d="M324 1572c-140,0 -253,-17 -253,-38 0,-21 113,-38 253,-38 140,0 253,17 253,38 0,21 -113,38 -253,38z"/>
  <g id="body">
   <g id="foot-left">
    <path class="fil1" d="M441 827c0,0 18,251 16,314l17 329 -55 -3c-12,-151 -32,-226 -32,-324l-47 -293c0,0 46,-22 100,-23z"/>
    <path class="fil2" d="M417 1463c2,-22 21,-33 41,-28 19,5 22,37 22,37 0,0 24,21 29,58 0,1 0,2 0,3 1,7 -4,13 -11,14 -34,6 -67,6 -99,0 -7,-1 -11,-7 -11,-14l0 -1c2,-16 7,-46 27,-58l3 -12z"/>
    <path class="fil3" d="M424 1488l-2 -4c1,-1 30,-13 50,1l-2 4c-19,-12 -46,-1 -46,0z"/>
    <path class="fil3" d="M428 1488c0,3 -3,4 -6,4 -3,0 -4,-3 -4,-6 0,-3 3,-4 6,-4 3,0 4,3 4,6z"/>
    <path class="fil3" d="M477 1487c0,3 -3,4 -6,4 -3,0 -4,-3 -4,-6 0,-3 3,-4 6,-4 3,0 4,3 4,6z"/>
    <path class="fil3" d="M425 1476l-2 -4c1,-1 30,-13 50,1l-2 4c-19,-12 -46,-1 -46,0z"/>
    <path class="fil3" d="M428 1476c0,3 -3,4 -6,4 -3,0 -4,-3 -4,-6 0,-3 3,-4 6,-4 3,0 4,3 4,6z"/>
    <path class="fil3" d="M477 1474c0,3 -3,4 -6,4 -3,0 -4,-3 -4,-6 0,-3 3,-4 6,-4 3,0 4,3 4,6z"/>
    <path class="fil3" d="M424 1500l-2 -4c1,-1 30,-13 50,1l-2 4c-19,-12 -46,-1 -46,0z"/>
    <path class="fil3" d="M428 1500c0,3 -3,4 -6,4 -3,0 -4,-3 -4,-6 0,-3 3,-4 6,-4 3,0 4,3 4,6z"/>
    <path class="fil3" d="M477 1499c0,3 -3,4 -6,4 -3,0 -4,-3 -4,-6 0,-3 3,-4 6,-4 3,0 4,3 4,6z"/>
    <path class="fil3" d="M460 1449c0,0 -15,-5 -27,1 -1,3 -1,6 0,10 0,0 17,-3 27,-1 0,0 2,-6 0,-10z"/>
    <path class="fil4" d="M497 1548c-34,6 -67,6 -99,0 -7,-1 -11,-7 -11,-14l0 -1c20,6 67,15 120,-2 0,1 0,2 0,3 1,7 -4,13 -11,14z"/>
   </g>
   <g id="foot-right">
    <path class="fil1" d="M200 827c0,0 -18,251 -16,314l-17 329 55 -3c12,-151 32,-226 32,-324l47 -293c0,0 -46,-22 -100,-23z"/>
    <path class="fil2" d="M224 1463c-2,-22 -21,-33 -41,-28 -19,5 -22,37 -22,37 0,0 -24,21 -29,58 0,1 0,2 0,3 -1,7 4,13 11,14 34,6 67,6 99,0 7,-1 11,-7 11,-14l0 -1c-2,-16 -7,-46 -27,-58l-3 -12z"/>
    <path class="fil3" d="M216 1488l2 -4c-1,-1 -30,-13 -50,1l2 4c19,-12 46,-1 46,0z"/>
    <path class="fil3" d="M212 1488c0,3 3,4 6,4 3,0 4,-3 4,-6 0,-3 -3,-4 -6,-4 -3,0 -4,3 -4,6z"/>
    <path class="fil3" d="M164 1487c0,3 3,4 6,4 3,0 4,-3 4,-6 0,-3 -3,-4 -6,-4 -3,0 -4,3 -4,6z"/>
    <path class="fil3" d="M215 1476l2 -4c-1,-1 -30,-13 -50,1l2 4c19,-12 46,-1 46,0z"/>
    <path class="fil3" d="M212 1476c0,3 3,4 6,4 3,0 4,-3 4,-6 0,-3 -3,-4 -6,-4 -3,0 -4,3 -4,6z"/>
    <path class="fil3" d="M163 1474c0,3 3,4 6,4 3,0 4,-3 4,-6 0,-3 -3,-4 -6,-4 -3,0 -4,3 -4,6z"/>
    <path class="fil3" d="M216 1500l2 -4c-1,-1 -30,-13 -50,1l2 4c19,-12 46,-1 46,0z"/>
    <path class="fil3" d="M212 1500c0,3 3,4 6,4 3,0 4,-3 4,-6 0,-3 -3,-4 -6,-4 -3,0 -4,3 -4,6z"/>
    <path class="fil3" d="M164 1499c0,3 3,4 6,4 3,0 4,-3 4,-6 0,-3 -3,-4 -6,-4 -3,0 -4,3 -4,6z"/>
    <path class="fil3" d="M180 1449c0,0 15,-5 27,1 1,3 1,6 0,10 0,0 -17,-3 -27,-1 0,0 -2,-6 0,-10z"/>
    <path class="fil4" d="M143 1548c34,6 67,6 99,0 7,-1 11,-7 11,-14l0 -1c-20,6 -67,15 -120,-2 0,1 0,2 0,3 -1,7 4,13 11,14z"/>
   </g>
   <g id="torso">
    <path class="fil1" d="M199 837c0,-53 13,-89 13,-89 86,-6 220,0 220,0 0,1 0,1 1,2 0,0 14,49 6,88 -83,52 -164,48 -240,0z"/>
    <path class="fil5" d="M443 769c-24,13 -47,22 -70,28 -17,4 -34,6 -52,6 -16,0 -31,-2 -46,-5 -24,-5 -48,-15 -75,-29l10 -208 -1 -243 62 -17 19 -5c10,-3 21,-4 31,-4 10,0 21,1 31,4l21 6 59 16 -1 243 11 208z"/>
    <path class="fil3" d="M374 303l0 494c-17,4 -34,6 -52,6 -16,0 -31,-2 -46,-5l0 -12 0 -13 0 -30 0 -13 0 -30 0 -13 0 -30 0 -13 0 -30 0 -13 0 -30 0 -13 0 -30 0 -13 0 -30 0 -13 0 -30 0 -13 0 -30 0 -13 0 -30 0 -13 0 -30 0 -13 0 -1 19 -5c10,-3 21,-4 31,-4 10,0 21,1 31,4l21 6 0 0z"/>
    <path class="fil6" d="M374 316l0 13c-18,3 -35,4 -51,4 -20,0 -37,-2 -51,-4l0 -13c24,3 62,7 102,0l0 0z"/>
    <path class="fil6" d="M374 352l0 13c-18,3 -35,4 -50,4 -20,0 -38,-2 -51,-4l0 -13c24,4 62,7 101,0z"/>
    <path class="fil6" d="M374 388l0 13c-17,3 -34,4 -50,4 -20,0 -38,-2 -51,-4l0 -13c24,4 62,7 101,0z"/>
    <path class="fil6" d="M374 431l0 13c-17,3 -34,4 -49,4 -20,0 -38,-2 -52,-4l0 -13c24,4 61,7 101,0z"/>
    <path class="fil6" d="M374 474l0 13c-17,3 -33,4 -48,4 -20,0 -38,-2 -52,-4l0 -13c24,4 61,8 100,0z"/>
    <path class="fil6" d="M374 517l0 13c-17,3 -33,4 -48,4 -20,0 -38,-2 -52,-4l0 -13c23,4 61,8 100,0z"/>
    <path class="fil6" d="M374 560l0 13c-16,3 -32,4 -47,4 -20,0 -38,-2 -52,-5l0 -13c23,4 61,8 100,1z"/>
    <path class="fil6" d="M374 603l0 13c-16,3 -32,4 -47,4 -20,0 -38,-2 -52,-5l0 -13c23,4 60,8 99,1z"/>
    <path class="fil6" d="M374 646l0 13c-16,3 -32,4 -46,4 -20,0 -38,-2 -52,-5l0 -13c23,5 60,9 99,1z"/>
    <path class="fil6" d="M374 689l0 13c-16,3 -32,4 -46,4 -20,0 -38,-2 -53,-5l0 -13c23,5 60,9 99,1z"/>
    <path class="fil6" d="M374 732l0 13c-16,3 -31,4 -46,4 -20,0 -39,-2 -53,-5l0 -13c23,5 60,9 98,1z"/>
    <path class="fil6" d="M374 774l0 13c-16,3 -31,4 -45,4 -20,0 -38,-2 -53,-5l0 -13c23,5 59,9 98,1z"/>
   </g>
   <g id="hand-right">
    <path class="fil7" d="M132 769c0,0 5,16 10,27 5,12 2,20 5,31 3,10 -9,10 -12,-1 -2,-11 -1,-16 -4,-16 -2,0 -9,26 -10,34 -1,8 1,27 -2,30 -3,3 -10,-8 -8,-28 2,-20 1,-19 1,-19 0,0 -2,8 -4,16 -2,8 -2,18 -2,24 0,6 -5,8 -7,5 -2,-3 -4,-23 -2,-31 2,-8 5,-21 5,-21 0,0 -8,18 -9,22 -1,5 1,22 -3,25 -2,1 -7,0 -6,-25 0,0 2,-12 4,-20 0,0 -4,6 -6,13 -2,7 -3,14 -3,20 -1,7 -6,6 -6,-6 0,-12 2,-25 5,-31 3,-6 8,-43 18,-57l35 7z"/>
    <path class="fil5" d="M244 373c0,0 -28,132 -52,177 0,0 -13,64 -59,221 0,0 -24,9 -38,-9 0,0 22,-173 35,-228 0,0 60,-191 79,-216 0,0 31,12 34,54z"/>
   </g>
   <g id="hand-left">
    <path class="fil7" d="M512 769c0,0 -5,16 -10,27 -5,12 -2,20 -5,31 -3,10 9,10 12,-1 2,-11 1,-16 4,-16 2,0 9,26 10,34 1,8 -1,27 2,30 3,3 10,-8 8,-28 -2,-20 -1,-19 -1,-19 0,0 2,8 4,16 2,8 2,18 2,24 0,6 5,8 7,5 2,-3 4,-23 2,-31 -2,-8 -5,-21 -5,-21 0,0 8,18 9,22 1,5 -1,22 3,25 2,1 7,0 6,-25 0,0 -2,-12 -4,-20 0,0 4,6 6,13 2,7 3,14 3,20 1,7 6,6 6,-6 0,-12 -2,-25 -5,-31 -3,-6 -8,-43 -18,-57l-35 7z"/>
    <path class="fil5" d="M400 373c0,0 28,132 52,177 0,0 13,64 59,221 0,0 24,9 38,-9 0,0 -22,-173 -35,-228 0,0 -60,-191 -79,-216 0,0 -31,12 -34,54z"/>
   </g>
   <g id="head">
    <path class="fil7" d="M354 263l-1 20 -1 25c0,0 -5,10 -28,10 -23,0 -27,-6 -27,-6l-1 -11 -3 -37 61 0z"/>
    <path class="fil8" d="M354 263l-1 20c-9,7 -32,21 -57,17l-3 -37 61 0z"/>
    <path class="fil9" d="M254 171c0,0 -17,-17 -31,-6 -16,13 1,60 30,55l1 -49z"/>
    <path class="fil8" d="M244 208c-1,0 -3,-1 -3,-3 -2,-23 -15,-27 -16,-27 -2,0 -2,-2 -2,-4 0,-2 2,-2 3,-2 1,0 18,5 20,32 0,2 -1,3 -3,3l0 0z"/>
    <path class="fil8" d="M228 197c-1,0 -1,0 -2,-1 -1,-1 -1,-3 0,-4 0,0 6,-6 15,-4 2,0 2,2 2,3 0,2 -2,2 -4,2 -6,-2 -10,2 -10,2 -1,1 -1,1 -2,1z"/>
    <path class="fil9" d="M387 171c0,0 17,-17 31,-6 16,13 -1,60 -30,55l-1 -49z"/>
    <path class="fil8" d="M397 208c1,0 3,-1 3,-3 2,-23 15,-27 16,-27 2,0 2,-2 2,-4 0,-2 -2,-2 -3,-2 -1,0 -18,5 -20,32 0,2 1,3 3,3l0 0z"/>
    <path class="fil8" d="M413 197c1,0 1,0 2,-1 1,-1 1,-3 0,-4 0,0 -6,-6 -15,-4 -2,0 -2,2 -2,3 0,2 2,2 3,2 6,-2 10,2 10,2 1,1 1,1 2,1z"/>
    <path class="fil7" d="M321 282c-60,0 -78,-71 -84,-123 -5,-48 32,-90 80,-91 1,0 1,0 2,0 1,0 2,0 2,0 48,1 85,42 81,89 -5,53 -22,125 -82,125z"/>
    <path class="fil10" d="M397 30c30,21 3,61 3,61 0,0 30,30 -1,99l-6 -1c4,-22 1,-49 0,-54 -4,-13 -27,-20 -25,-33 0,0 -69,21 -106,0 0,0 -3,18 -13,29 -9,9 -4,42 -3,56l-6 1c-3,-14 -12,-40 -13,-48 -1,-5 -3,-24 -3,-37 -1,-12 1,-24 7,-34 3,-6 7,-12 13,-16 20,-15 125,-41 152,-23z"/>
    <path class="fil10" d="M293 171c0,6 -3,11 -6,11 -3,0 -6,-5 -6,-11 0,-6 3,-11 6,-11 3,0 6,5 6,11z"/>
    <path class="fil10" d="M263 148c0,0 6,-12 17,-15 10,-3 17,0 21,2 2,1 2,3 2,4 -1,2 -3,3 -5,2 -6,-3 -20,-7 -35,6z"/>
    <path class="fil10" d="M352 171c0,6 3,11 6,11 3,0 6,-5 6,-11 0,-6 -3,-11 -6,-11 -3,0 -6,5 -6,11z"/>
    <path class="fil10" d="M382 148c0,0 -6,-12 -17,-15 -10,-3 -17,0 -21,2 -2,1 -2,3 -2,4 1,2 3,3 5,2 6,-3 20,-7 35,6z"/>
    <path class="fil8" d="M321 208c-1,0 -2,-1 -2,-1 -1,-1 0,-3 1,-4l9 -6 -7 -3c-1,0 -2,-2 -2,-3l-1 -20c0,-2 1,-3 3,-3 2,0 3,1 3,3l1 18 11 4c1,0 2,1 2,3 0,1 0,2 -1,3l-15 9c-1,0 -1,1 -2,0z"/>
    <path class="fil8" d="M335 238c-12,2 -27,2 -42,-8 -1,-1 -2,-3 -1,-4 1,-1 3,-2 4,-1 26,17 55,0 55,0 1,-1 3,0 4,1 1,1 0,3 -1,4 -1,0 -9,5 -20,7z"/>
    <path class="fil8" d="M324 252c-5,0 -11,-1 -17,-5 -1,-1 -1,-2 -1,-3 1,-1 2,-1 3,-1 15,9 29,0 30,0 1,-1 2,0 3,1 1,1 0,2 -1,3 0,0 -7,4 -17,5z"/>
   </g>
  </g>
  <polygon class="fil11" points="0,0 648,0 648,1596 0,1596 "/>
  <g id="heart">
   <path class="fil12" d="M334 407c-9,-1 -23,4 -26,20 -3,17 -4,35 14,57 18,22 37,20 46,10 7,-8 8,-22 8,-28 0,-1 0,-2 1,-3 4,-8 6,-18 4,-29 -3,-14 -12,-17 -21,-18 -3,-4 -11,-7 -26,-8z"/>
   <path class="fil13" d="M340 389c0,1 -6,15 -6,22 -1,3 -2,5 -7,5l0 0 0 0 0 0 0 0 0 0 0 0 0 0c0,0 -1,0 -1,0 0,0 1,0 1,1 0,0 0,1 0,1 0,1 0,1 -1,1 -1,1 -1,1 -2,1 0,-1 1,-1 2,-2 0,-1 0,-1 0,-2 0,0 0,0 -1,-1 0,0 -1,0 -1,-1l0 0c-2,0 -4,-1 -5,-1 0,1 -1,1 -2,1 0,0 -1,0 -1,1 0,0 0,1 0,1 0,0 0,1 0,1 0,0 1,1 1,1 0,1 0,1 0,1 0,0 0,-1 0,-1 0,0 -1,-1 -1,-1 0,0 -1,-1 -1,-1 0,0 0,0 -1,1 -1,1 -1,2 -2,3 0,1 0,2 -1,4 0,-1 0,-2 0,-4 0,-1 0,-1 0,-2 0,-1 1,-1 1,-2 1,-1 2,-2 3,-2 1,0 1,-1 1,-1 -1,-1 -1,-2 -1,-2l0 0 0 0 0 0 0 0 0 0 0 0 0 0 0 0 0 0 0 0 0 0 0 0 0 0 0 0 0 0 0 0 0 0 0 0 0 0c0,-2 4,-21 11,-26l0 0 0 0 0 0 0 0 0 0 0 0 0 0 0 0 0 0 0 0 0 0 0 0 0 0 0 0 0 0 0 0 0 0 0 0 0 0 0 0 0 0 0 0 0 0 0 0 0 0 0 0c0,0 0,0 0,0l0 0c0,0 0,0 1,0l0 0 0 0 0 0 0 0 0 0 0 0 0 0 0 0 0 0 0 0 0 0 0 0 0 0 0 0 0 0 0 0 0 0 0 0 0 0 0 0c0,0 0,0 0,0l0 0 0 0 0 0 0 0 0 0 0 0c0,0 0,0 0,0l0 0 0 0 0 0 0 0 0 0 0 0 0 0 0 0 0 0 0 0 0 0 0 0 0 0 0 0 0 0 0 0 0 0 0 0 0 0 0 0 0 0 0 0 0 0 0 0 0 0 0 0 0 0 0 0 0 0 0 0 0 0 0 0 0 0 0 0 0 0 0 0 0 0 0 0 0 0 0 0 0 0 0 0 0 0 0 0 0 0 0 0 0 0 0 0 0 0 0 0 0 0c0,0 0,1 0,1l0 0 0 0 0 0 0 0 0 0 0 0zm10 48c0,0 -1,0 -1,0 -1,0 -1,0 -1,0 0,0 -1,0 -1,1 0,-1 1,-1 1,-1 1,0 1,0 2,0 1,0 1,0 2,0l0 0c1,-1 2,-1 3,-2 1,0 2,-1 2,-2 0,0 1,-1 1,-1 -2,-1 -3,-3 -4,-5 2,-20 22,-26 27,-25 4,1 4,7 2,9 -11,5 -11,15 -11,19 1,0 1,1 2,1 0,0 0,1 0,1 0,0 0,1 -1,1 0,-1 0,-2 0,-2 0,0 -1,0 -1,-1 0,0 0,1 0,1 0,0 -2,1 -3,2 0,0 1,1 1,1 0,0 1,1 2,1 0,0 1,0 1,0 0,0 1,0 1,-1 0,0 1,0 1,0 0,0 1,0 1,0 0,0 1,1 1,1 0,0 -1,-1 -1,-1 0,0 -1,0 -1,0 0,0 -1,1 -2,1 0,0 1,1 1,1 1,1 2,3 2,5 0,2 0,3 0,5 -1,-2 -1,-3 -1,-5 0,-2 -1,-3 -2,-4 -1,-1 -2,-2 -4,-3l0 0c0,0 -1,1 -1,1 -1,0 -1,1 -2,2 0,0 0,0 0,1 0,0 0,1 0,1 0,0 -1,1 -1,1 -1,0 -2,1 -3,1 1,0 2,-1 2,-1 0,0 1,-1 1,-1 0,0 0,0 0,-1 0,0 0,0 0,-1 0,-1 1,-2 2,-2 0,0 1,-1 1,-1 0,0 0,0 0,0 0,0 -1,-1 -1,-1 -2,0 -5,0 -7,-1 0,0 0,1 -1,1 -1,1 -2,2 -3,2 -1,1 -2,1 -3,1 -1,1 -1,1 -1,2 0,1 0,1 1,2 1,1 2,1 2,2 0,0 1,1 1,2 0,0 0,1 0,1l0 1c0,1 0,2 0,3 0,-1 0,-2 -1,-3 0,-1 0,-2 -1,-3 -1,-1 -1,-1 -2,-2 0,0 -1,-1 -1,-1 0,-1 -1,-1 -1,-2 0,-1 0,-1 1,-2z"/>
   <path class="fil14" d="M371 380c-2,-1 -4,-1 -7,0l-1 -5c0,-1 -2,-1 -3,-1 0,0 -1,0 -1,0l0 0 0 0c0,0 -1,0 -1,0l0 0c-1,0 -1,0 -1,1 -1,0 -2,1 -1,2l0 0 0 0c0,0 0,3 1,6 -2,1 -3,2 -5,3l-2 -4c0,0 0,0 0,0 -2,-3 -9,2 -7,4l0 0 0 0c0,0 1,3 3,5 -2,2 -4,5 -6,8l0 0c0,1 -1,1 -1,2l0 0 0 0 0 1 0 0 0 1 0 1 0 1 0 1 0 0 0 1 0 0 0 1 0 0 0 1 0 0 0 1 0 0c0,0 0,1 0,1l0 0c0,0 0,1 0,1l0 0c0,0 0,1 0,1l0 0c0,0 0,1 0,1l0 0c0,1 0,2 -1,3l0 0 0 0c0,0 0,1 0,1l0 0 0 0 0 0 0 0 0 0 0 0 0 0 0 0 0 0 0 0 0 0 0 0 0 0 0 0 0 0 0 0 0 0 0 0 0 0 0 0 0 0 0 0 0 0 0 0 0 0 0 0 0 0 0 0 0 0 0 0 0 0 0 0 0 0 0 0 0 0 0 0 0 0 0 0 0 0 0 0 0 0 0 0 0 0 0 0 0 0 0 0 0 0 0 0 0 0c4,6 14,5 16,3l0 0 0 0 0 0 0 0 0 0 0 0 0 0 0 0 0 0 0 0 0 0 0 0 0 0 0 0c1,-7 3,-26 21,-29l0 0 0 0 0 0 0 0 0 0 0 0 0 0 0 0 0 0 0 0 0 0 0 0 0 0 0 0 0 0 0 0 0 0 0 0 0 0 0 0c0,0 0,0 0,0l0 0 0 0 0 0 0 0 0 0 0 0 0 0 0 0 0 0 0 0 0 0 0 0 0 0 0 0 0 0 0 0 0 0 0 0 0 0 0 0c2,-4 1,-10 -3,-11z"/>
   <path class="fil15" d="M338 389c-1,1 -3,2 -7,0 -3,-1 -2,-2 -2,-3l0 0 0 0 0 0c4,-3 9,1 9,2z"/>
   <path class="fil16" d="M362 375c0,-1 -3,-1 -4,-1 -1,0 -2,1 -2,2 0,1 6,0 6,-1zm-14 6c1,1 -4,5 -5,3 -1,-2 4,-5 5,-3z"/>
  </g>
 </g>
</svg>
