<svg width="45" height="42" viewBox="0 0 45 42" fill="none" xmlns="http://www.w3.org/2000/svg">
<path fill-rule="evenodd" clip-rule="evenodd" d="M22.6027 0.000231552C25.0539 0.0111589 30.1607 0.41238 31.789 1.9526C33.1632 3.25253 33.5845 4.11976 34.1033 5.18803C34.3639 5.72439 34.649 6.31143 35.0917 7.02937C35.4848 7.6668 36.0001 8.18863 36.5836 8.63416C37.2073 9.11036 37.855 9.56416 38.5004 10.0163C41.0076 11.7727 43.4783 13.5036 44.3568 16.4228C44.7412 17.7003 45 19.1447 45 20.6976C45 25.2276 42.8473 29.0938 41.7464 30.4606C41.2854 30.8967 40.3029 31.3327 39.2297 31.809C37.4194 32.6125 35.3509 33.5305 35.0917 34.7563C34.6789 36.3184 32.8211 38.8568 31.789 39.8331C30.7709 40.7962 25.1332 41.7592 22.6027 41.7852C20.0491 41.7592 14.3596 40.7962 13.3322 39.8331C12.2906 38.8568 10.4158 36.3184 9.99916 34.7563C9.74183 33.5503 7.94499 32.7058 6.27522 31.9211C5.24152 31.4352 4.25651 30.9723 3.7156 30.4606C2.60458 29.0938 0 25.2276 0 20.6976C0 19.1357 0.264153 17.6837 0.655843 16.4007C1.55365 13.4601 4.06302 11.7283 6.60523 9.97381C7.22631 9.54518 7.84935 9.11521 8.45132 8.66592C9.05755 8.21346 9.593 7.68201 9.99916 7.02937C10.446 6.31143 10.7337 5.72439 10.9966 5.18803C11.5203 4.11976 11.9454 3.25254 13.3322 1.9526C14.9754 0.41238 20.1291 0.0111589 22.6027 0.000231552ZM22.5482 10.9347C23.6948 10.9399 26.0732 11.1311 26.835 11.8653C27.418 12.427 27.7485 13.3943 28.0096 14.1588C28.1811 14.6609 28.3228 15.0755 28.4864 15.2303C29.0295 15.7441 29.6711 16.1323 30.2953 16.5101C31.4442 17.2054 32.5342 17.8651 32.8434 19.2059C32.957 19.6987 33.0277 20.2341 33.0277 20.7998C33.0277 21.1669 32.9979 21.5249 32.946 21.8694C32.6699 23.6995 31.2108 24.8258 29.722 25.975C29.1557 26.4122 28.585 26.8527 28.0736 27.3365C27.6811 27.7077 27.4953 28.3109 27.3272 28.8563C27.1896 29.303 27.0639 29.7109 26.8464 29.9205C26.37 30.3795 23.7322 30.8385 22.5483 30.8509C21.3534 30.8385 18.6914 30.3795 18.2107 29.9205C17.9664 29.6873 17.8693 29.1534 17.7725 28.6214C17.6761 28.0917 17.5801 27.5639 17.3396 27.3365C16.7453 26.7742 16.065 26.2799 15.3933 25.7918C13.7802 24.6195 12.2167 23.4833 12.0114 21.5291C11.9863 21.291 11.9727 21.0475 11.9727 20.7998C11.9727 20.3725 12.0134 19.9625 12.0827 19.575C12.3519 18.071 13.5631 17.3802 14.8527 16.6448C15.5693 16.2362 16.31 15.8137 16.9268 15.2303C17.1259 15.0419 17.2133 14.5937 17.316 14.0668C17.4619 13.3184 17.6387 12.4114 18.2107 11.8653C18.9795 11.1311 21.3908 10.9399 22.5482 10.9347Z" fill="#2E303F"/>
</svg>
