<svg width="45" height="45" viewBox="0 0 45 45" fill="none" xmlns="http://www.w3.org/2000/svg">
<path fill-rule="evenodd" clip-rule="evenodd" d="M22.6027 0.000249363C25.0539 0.0120173 30.1607 0.444101 31.789 2.1028C33.1632 3.50273 33.5845 4.43666 34.1033 5.58711C34.3639 6.16473 34.649 6.79693 35.0917 7.57009C35.4891 8.26395 36.0113 8.83062 36.6025 9.3138C37.2245 9.82214 37.8707 10.3079 38.5142 10.7915C40.9808 12.6457 43.4074 14.4698 44.281 17.4227C44.7069 18.8621 45 20.5097 45 22.2897C45 27.1682 42.8473 31.3318 41.7464 32.8037C41.2854 33.2733 40.3029 33.7429 39.2297 34.2559C37.4194 35.1211 35.3509 36.1098 35.0917 37.4299C34.6789 39.1121 32.8211 41.8458 31.789 42.8972C30.7709 43.9343 25.1332 44.9714 22.6027 44.9994C20.0491 44.9714 14.3596 43.9343 13.3322 42.8972C12.2906 41.8458 10.4158 39.1121 9.99916 37.4299C9.74183 36.1311 7.94499 35.2217 6.27522 34.3765C5.24152 33.8533 4.25651 33.3548 3.7156 32.8037C2.60458 31.3318 0 27.1682 0 22.2897C0 20.5023 0.298294 18.8484 0.730944 17.4048C1.62253 14.4297 4.08683 12.6034 6.58836 10.7496C7.21004 10.2888 7.83401 9.82642 8.43672 9.34423C9.04895 8.85444 9.58974 8.27857 9.99916 7.57009C10.446 6.79693 10.7337 6.16473 10.9966 5.58711C11.5203 4.43666 11.9454 3.50273 13.3322 2.1028C14.9754 0.444101 20.1291 0.0120173 22.6027 0.000249363ZM22.5482 11.7758C23.6948 11.7814 26.0732 11.9874 26.835 12.778C27.418 13.3829 27.7485 14.4247 28.0096 15.248C28.1811 15.7887 28.3228 16.2352 28.4864 16.4019C29.028 16.9536 29.6769 17.3713 30.3083 17.7777C31.4283 18.4986 32.4933 19.1842 32.8065 20.5192C32.9415 21.0944 33.0277 21.7272 33.0277 22.3998C33.0277 22.8593 32.9875 23.3056 32.9189 23.7313C32.6224 25.5723 31.1965 26.7538 29.7417 27.9592C29.1676 28.4348 28.589 28.9142 28.0736 29.4393C27.6811 29.839 27.4953 30.4887 27.3272 31.076C27.1896 31.5571 27.0639 31.9964 26.8464 32.222C26.37 32.7164 23.7322 33.2107 22.5483 33.224C21.3534 33.2107 18.6914 32.7164 18.2107 32.222C17.9664 31.9709 17.8693 31.396 17.7725 30.823C17.6761 30.2526 17.5801 29.6842 17.3396 29.4393C16.7417 28.8301 16.0521 28.2934 15.3715 27.7636C13.7998 26.5402 12.2754 25.3536 12.0348 23.3975C11.995 23.0742 11.9727 22.7407 11.9727 22.3998C11.9727 21.8672 12.0272 21.3596 12.1175 20.8857C12.4019 19.3936 13.5839 18.6786 14.8387 17.9194C15.5634 17.481 16.3123 17.0278 16.9268 16.4019C17.1259 16.199 17.2133 15.7163 17.316 15.1489C17.4619 14.3429 17.6387 13.3662 18.2107 12.778C18.9795 11.9874 21.3908 11.7814 22.5482 11.7758Z" fill="#EBE6D1"/>
</svg>
