<svg width="57" height="75" viewBox="0 0 57 75" fill="none" xmlns="http://www.w3.org/2000/svg">
<path fill-rule="evenodd" clip-rule="evenodd" d="M56.7085 59.6462H47.4741V74.5993H31.541V59.6462H0.228516V47.7513L32.7775 0.681885H47.4741V45.3069H56.7085V59.6462ZM44.8747 47.9062V3.28123H34.1404L2.82786 48.5625V57.0469H34.1404V72H44.8747V57.0469H54.1091V47.9062H44.8747ZM31.7216 20.5286C32.7952 18.6978 33.6328 17.0737 34.2341 15.6562H34.6091C34.605 15.7073 34.601 15.7587 34.5969 15.8102C34.5364 16.5826 34.4819 17.3977 34.4334 18.2556C34.3795 19.209 34.333 20.2153 34.294 21.2743C34.1916 24.0536 34.1404 27.1966 34.1404 30.7031V47.9062H13.0935L30.1091 23.1562C30.6955 22.2376 31.233 21.3617 31.7216 20.5286ZM18.0349 45.3069H31.541V30.7031C31.541 28.9128 31.5543 27.2129 31.5809 25.6036L18.0349 45.3069Z" fill="#EBE6D1"/>
</svg>
