<svg width="37" height="75" viewBox="0 0 37 75" fill="none" xmlns="http://www.w3.org/2000/svg">
<path fill-rule="evenodd" clip-rule="evenodd" d="M36.162 74.5993H19.9477V27.75C19.9477 25.3782 19.9727 23.2145 20.0233 21.2616C18.2077 22.7661 15.3217 25.123 11.3881 28.3152L9.34554 29.9728L0.561523 18.8811L23.4758 0.869385H36.162V74.5993ZM20.1531 17.7567C20.1876 17.7267 20.2199 17.6984 20.2502 17.6719C21.3127 16.7656 22.2033 15.9375 22.922 15.1875C22.8313 16.3101 22.7571 17.5767 22.6993 18.9873C22.5978 21.4642 22.547 24.3851 22.547 27.75V72H33.5627V3.46873H24.3752L4.21891 19.3125L9.75016 26.2969C10.4574 25.7229 11.13 25.1766 11.768 24.6579C16.3558 20.9278 19.1509 18.6273 20.1531 17.7567Z" fill="#EBE6D1"/>
</svg>
