<svg width="53" height="77" viewBox="0 0 53 77" fill="none" xmlns="http://www.w3.org/2000/svg">
<path fill-rule="evenodd" clip-rule="evenodd" d="M46.2479 32.8114C44.9267 34.3121 43.3831 35.5735 41.6362 36.6077C44.0459 37.5859 46.1231 38.9016 47.8177 40.5947C51.1423 43.8848 52.7088 48.2185 52.7088 53.3125C52.7088 60.6004 50.0904 66.5013 44.7132 70.6515L44.7046 70.6582C39.4268 74.6962 32.1591 76.5368 23.25 76.5368C15.3879 76.5368 8.5775 75.2605 2.91976 72.5841L1.43195 71.8802V56.2518L5.18373 58.1076C7.91098 59.4565 10.8058 60.5009 13.8732 61.2383C16.9465 61.977 19.8671 62.3381 22.6407 62.3381C27.7116 62.3381 31.0147 61.3843 32.9873 59.9049C34.7915 58.5517 35.8851 56.3835 35.8851 52.8437C35.8851 50.0141 34.8408 48.2244 32.8019 47.0186C30.5092 45.6627 26.5239 44.8025 20.4375 44.8025H11.8851V30.6506H20.5313C25.7809 30.6506 29.2568 29.7286 31.3577 28.276C33.285 26.9434 34.3382 24.9701 34.3382 21.9062C34.3382 19.5833 33.6167 18.1117 32.4109 17.1036C31.1557 16.0542 29.0418 15.3181 25.6407 15.3181C23.3015 15.3181 21.0627 15.6556 18.9142 16.3253L18.8994 16.3299L18.8846 16.3343C16.8081 16.9546 14.198 18.2346 11.0224 20.2911L8.91955 21.653L0.632324 9.83467L2.67758 8.32871C9.43559 3.35266 17.281 0.88501 26.1094 0.88501C33.3562 0.88501 39.379 2.43947 43.8621 5.87409C48.4289 9.37281 50.6931 14.2559 50.6931 20.2187C50.6931 25.1048 49.2532 29.3609 46.257 32.8009L46.2479 32.8114ZM45.9844 42.4375C44.0836 40.5366 41.5258 39.1285 38.3111 38.2131C36.8987 37.8109 35.3594 37.5038 33.6934 37.2918C33.6654 37.2883 33.6374 37.2847 33.6094 37.2812V36.9062C33.6255 36.9027 33.6416 36.8992 33.6576 36.8957C35.2795 36.5397 36.7725 36.0666 38.1365 35.4761C40.6162 34.4028 42.6697 32.942 44.2969 31.0937C46.8282 28.1875 48.0938 24.5625 48.0938 20.2187C48.0938 15 46.1563 10.9062 42.2813 7.93748C38.4063 4.96873 33.0157 3.48436 26.1094 3.48436C18.7271 3.48436 12.1459 5.30826 6.36567 8.95605C6.11172 9.11631 5.85932 9.28009 5.60847 9.44739C5.13985 9.75993 4.67663 10.0847 4.2188 10.4219L9.60942 18.1094C12.8907 15.9844 15.7344 14.5625 18.1407 13.8437C20.5469 13.0937 23.0469 12.7187 25.6407 12.7187C29.3594 12.7187 32.1719 13.5156 34.0782 15.1094C35.9844 16.7031 36.9375 18.9687 36.9375 21.9062C36.9375 29.4687 31.4688 33.25 20.5313 33.25H14.4844V42.2031H20.4375C26.6563 42.2031 31.2188 43.0625 34.125 44.7812C37.0313 46.5 38.4844 49.1875 38.4844 52.8437C38.4844 56.9687 37.1719 60.0156 34.5469 61.9844C31.9219 63.9531 27.9532 64.9375 22.6407 64.9375C19.6407 64.9375 16.5157 64.5469 13.2657 63.7656C10.9681 63.2133 8.75642 62.497 6.63065 61.6167C5.74944 61.2518 4.88299 60.8587 4.0313 60.4375V70.2344C9.25005 72.7031 15.6563 73.9375 23.25 73.9375C31.8438 73.9375 38.4688 72.1562 43.125 68.5937C47.7813 65 50.1094 59.9062 50.1094 53.3125C50.1094 48.7812 48.7344 45.1562 45.9844 42.4375Z" fill="#EBE6D1"/>
</svg>
