<svg width="30" height="30" viewBox="0 0 30 30" fill="none" xmlns="http://www.w3.org/2000/svg">
<path fill-rule="evenodd" clip-rule="evenodd" d="M0.732233 0.732233C1.70854 -0.244078 3.29146 -0.244078 4.26777 0.732233L15 11.4645L25.7322 0.732233C26.7085 -0.244078 28.2915 -0.244078 29.2678 0.732233C30.2441 1.70854 30.2441 3.29146 29.2678 4.26777L18.5355 15L29.2678 25.7322C30.2441 26.7085 30.2441 28.2915 29.2678 29.2678C28.2915 30.2441 26.7085 30.2441 25.7322 29.2678L15 18.5355L4.26777 29.2678C3.29146 30.2441 1.70854 30.2441 0.732233 29.2678C-0.244078 28.2915 -0.244078 26.7085 0.732233 25.7322L11.4645 15L0.732233 4.26777C-0.244078 3.29146 -0.244078 1.70854 0.732233 0.732233Z" fill="#EBE6D1"/>
</svg>
