<svg width="30" height="25" viewBox="0 0 30 25" fill="none" xmlns="http://www.w3.org/2000/svg">
<path fill-rule="evenodd" clip-rule="evenodd" d="M0 2.0119C0 0.90076 0.95939 0 2.14286 0H27.8571C29.0406 0 30 0.90076 30 2.0119C30 3.12305 29.0406 4.02381 27.8571 4.02381H2.14286C0.95939 4.02381 0 3.12305 0 2.0119Z" fill="#2E303F"/>
<path fill-rule="evenodd" clip-rule="evenodd" d="M0 12.0714C0 10.9603 0.95939 10.0595 2.14286 10.0595H27.8571C29.0406 10.0595 30 10.9603 30 12.0714C30 13.1826 29.0406 14.0833 27.8571 14.0833H2.14286C0.95939 14.0833 0 13.1826 0 12.0714Z" fill="#2E303F"/>
<path fill-rule="evenodd" clip-rule="evenodd" d="M0 22.131C0 21.0198 0.95939 20.119 2.14286 20.119H27.8571C29.0406 20.119 30 21.0198 30 22.131C30 23.2421 29.0406 24.1429 27.8571 24.1429H2.14286C0.95939 24.1429 0 23.2421 0 22.131Z" fill="#2E303F"/>
</svg>
