<svg width="30" height="26" viewBox="0 0 30 26" fill="none" xmlns="http://www.w3.org/2000/svg">
<path fill-rule="evenodd" clip-rule="evenodd" d="M0 2.16667C0 0.97005 0.95939 0 2.14286 0H27.8571C29.0406 0 30 0.97005 30 2.16667C30 3.36328 29.0406 4.33333 27.8571 4.33333H2.14286C0.95939 4.33333 0 3.36328 0 2.16667Z" fill="#EBE6D1"/>
<path fill-rule="evenodd" clip-rule="evenodd" d="M0 13C0 11.8034 0.95939 10.8333 2.14286 10.8333H27.8571C29.0406 10.8333 30 11.8034 30 13C30 14.1966 29.0406 15.1667 27.8571 15.1667H2.14286C0.95939 15.1667 0 14.1966 0 13Z" fill="#EBE6D1"/>
<path fill-rule="evenodd" clip-rule="evenodd" d="M0 23.8333C0 22.6367 0.95939 21.6667 2.14286 21.6667H27.8571C29.0406 21.6667 30 22.6367 30 23.8333C30 25.03 29.0406 26 27.8571 26H2.14286C0.95939 26 0 25.03 0 23.8333Z" fill="#EBE6D1"/>
</svg>
