<svg width="25" height="25" viewBox="0 0 25 25" fill="none" xmlns="http://www.w3.org/2000/svg">
<path d="M20.3125 9.375C22.9013 9.375 25 7.27633 25 4.6875C25 2.09867 22.9013 0 20.3125 0C17.7237 0 15.625 2.09867 15.625 4.6875C15.625 4.88357 15.637 5.07683 15.6604 5.26658L7.94155 9.12601C7.09849 8.31273 5.95141 7.8125 4.6875 7.8125C2.09867 7.8125 0 9.91117 0 12.5C0 15.0888 2.09867 17.1875 4.6875 17.1875C5.95144 17.1875 7.09854 16.6872 7.94161 15.8739L15.6604 19.7334C15.637 19.9231 15.625 20.1164 15.625 20.3125C15.625 22.9013 17.7237 25 20.3125 25C22.9013 25 25 22.9013 25 20.3125C25 17.7237 22.9013 15.625 20.3125 15.625C19.0486 15.625 17.9015 16.1252 17.0584 16.9385L9.33958 13.0791C9.36296 12.8893 9.375 12.6961 9.375 12.5C9.375 12.3039 9.36296 12.1106 9.33958 11.9209L17.0584 8.06144C17.9015 8.87475 19.0486 9.375 20.3125 9.375Z" fill="#EBE6D1"/>
</svg>
