<svg width="23" height="21" viewBox="0 0 23 21" fill="none" xmlns="http://www.w3.org/2000/svg">
<path d="M0.648933 10.3329L5.82179 12.2618L7.83832 18.7498C7.92599 19.1881 8.45205 19.2758 8.80275 19.0128L11.696 16.6456C11.959 16.3825 12.3974 16.3825 12.7481 16.6456L17.921 20.4156C18.2717 20.6786 18.7977 20.5033 18.8854 20.0649L22.7431 1.6531C22.8308 1.21472 22.3924 0.776348 21.954 0.951699L0.648933 9.19317C0.122882 9.36853 0.122882 10.1576 0.648933 10.3329ZM7.5753 11.2974L17.7456 5.07243C17.921 4.98476 18.0963 5.24779 17.921 5.33546L9.59182 13.1386C9.32879 13.4016 9.06576 13.7523 9.06576 14.1907L8.80275 16.2949C8.80275 16.5579 8.36437 16.6456 8.27669 16.2949L7.22458 12.4372C6.96155 11.9988 7.13692 11.4727 7.5753 11.2974Z" fill="#2E303F"/>
</svg>
