<svg width="21" height="15" viewBox="0 0 21 15" fill="none" xmlns="http://www.w3.org/2000/svg">
<path d="M20.3023 6.101C20.3023 5.66463 20.2296 5.15555 20.2296 4.57373C20.1568 3.99191 20.0841 3.41009 20.0114 2.901C19.8659 2.31918 19.6477 1.88282 19.2114 1.51919C18.8477 1.15555 18.3386 0.937362 17.8295 0.864635C16.1568 0.646453 13.6841 0.57373 10.3386 0.57373C6.99319 0.57373 4.44772 0.646453 2.84772 0.864635C2.33863 0.937362 1.82955 1.15555 1.46591 1.51919C1.10227 1.88282 0.811359 2.31918 0.665905 2.901C0.52045 3.41009 0.447732 3.91919 0.447732 4.57373C0.375004 5.15555 0.375 5.66463 0.375 6.101C0.375 6.53736 0.375 7.04645 0.375 7.77373C0.375 8.501 0.375 9.08282 0.375 9.44646C0.375 9.88282 0.447732 10.3919 0.447732 10.9737C0.520459 11.5556 0.593177 12.1374 0.665905 12.6465C0.811359 13.2283 1.02955 13.6646 1.46591 14.0283C1.82955 14.3919 2.33863 14.6101 2.84772 14.6828C4.52045 14.901 6.99319 14.9737 10.3386 14.9737C13.6841 14.9737 16.2295 14.901 17.8295 14.6828C18.3386 14.6101 18.8477 14.3919 19.2114 14.0283C19.575 13.6646 19.8659 13.2283 20.0114 12.6465C20.1568 12.1374 20.2296 11.6283 20.2296 10.9737C20.3023 10.3919 20.3023 9.88282 20.3023 9.44646C20.3023 9.01009 20.3023 8.501 20.3023 7.77373C20.3023 7.04645 20.3023 6.46463 20.3023 6.101ZM14.1932 8.35555L8.44773 11.9192C8.37501 11.9919 8.22955 12.0646 8.0841 12.0646C7.93864 12.0646 7.86591 12.0646 7.72046 11.9919C7.50228 11.8465 7.35682 11.6283 7.35682 11.3374V4.13736C7.35682 3.84645 7.50228 3.62828 7.72046 3.48282C7.93864 3.33737 8.22955 3.33737 8.44773 3.48282L14.1932 7.04645C14.4114 7.19191 14.5568 7.41009 14.5568 7.62827C14.5568 7.84646 14.4114 8.21009 14.1932 8.35555Z" fill="#2E303F"/>
</svg>
