<svg width="24" height="24" viewBox="0 0 24 24" fill="none" xmlns="http://www.w3.org/2000/svg">
<path d="M20.4177 3.57031C18.1951 1.35547 15.2317 0.125 12.1037 0.125C5.60061 0.125 0.332316 5.375 0.332316 11.8555C0.332316 13.9062 0.908537 15.957 1.89634 17.6797L0.25 23.75L6.5061 22.1094C8.23476 23.0117 10.128 23.5039 12.1037 23.5039C18.6067 23.5039 23.875 18.2539 23.875 11.7734C23.7927 8.73828 22.6402 5.78516 20.4177 3.57031ZM17.7835 16.0391C17.5366 16.6953 16.3841 17.3516 15.8079 17.4336C15.314 17.5156 14.6555 17.5156 13.997 17.3516C13.5854 17.1875 13.0091 17.0234 12.3506 16.6953C9.3872 15.4648 7.4939 12.5117 7.32927 12.2656C7.16464 12.1016 6.09451 10.707 6.09451 9.23047C6.09451 7.75391 6.83537 7.09765 7.08232 6.76953C7.32927 6.4414 7.65854 6.44141 7.90549 6.44141C8.07012 6.44141 8.31707 6.44141 8.4817 6.44141C8.64634 6.44141 8.89329 6.35937 9.14024 6.93359C9.38719 7.50781 9.96341 8.98438 10.0457 9.06641C10.128 9.23047 10.128 9.39453 10.0457 9.55859C9.96341 9.72266 9.88109 9.88672 9.71646 10.0508C9.55183 10.2148 9.38719 10.4609 9.30487 10.543C9.14024 10.707 8.97561 10.8711 9.14024 11.1172C9.30488 11.4453 9.8811 12.3477 10.7866 13.168C11.939 14.1523 12.8445 14.4805 13.1738 14.6445C13.503 14.8086 13.6677 14.7266 13.8323 14.5625C13.9969 14.3984 14.5732 13.7422 14.7378 13.4141C14.9024 13.0859 15.1494 13.168 15.3963 13.25C15.6433 13.332 17.125 14.0703 17.372 14.2344C17.7012 14.3984 17.8659 14.4805 17.9482 14.5625C18.0305 14.8086 18.0305 15.3828 17.7835 16.0391Z" fill="#2E303F"/>
</svg>
